<svg width="192" height="212" viewBox="0 0 192 212" fill="none" xmlns="http://www.w3.org/2000/svg">
<g filter="url(#filter0_d_3_1599)">
<circle cx="95.9994" cy="107.653" r="84.9994" fill="white"/>
</g>
<path fill-rule="evenodd" clip-rule="evenodd" d="M45.5815 176.094C23.638 159.898 9.86471 133.45 11.0736 104.149C11.3222 98.1227 12.1924 92.2692 13.6198 86.6474C14.4914 86.9717 15.3886 87.3728 16.2994 87.8663C23.3688 91.6875 18.98 101.523 18.98 101.523C18.98 101.523 35.747 98.5499 47.1354 110.773C58.5503 122.93 43.6152 136.305 43.6152 136.305C43.6152 136.305 45.6537 136.965 50.4491 145.327C55.1783 153.663 42.7037 164.72 42.7037 164.72C42.7037 164.72 44.0398 163.489 47.5889 167.669C49.0207 169.356 47.6849 172.702 45.5815 176.094Z" fill="#0070F0" fill-opacity="0.5"/>
<path fill-rule="evenodd" clip-rule="evenodd" d="M25.6101 155.307C15.7488 140.765 10.2937 123.05 11.0736 104.148C11.1557 102.158 11.3057 100.186 11.5211 98.2356C14.6097 99.811 17.7561 101.998 20.6479 105.03C32.1156 117.055 18.3824 125.691 18.3824 125.691C18.3824 125.691 24.8007 124.417 28.0104 137.518C30.2765 146.767 27.4613 152.648 25.6101 155.307Z" fill="#0070F0" fill-opacity="0.5"/>
<path fill-rule="evenodd" clip-rule="evenodd" d="M179.613 123.007C172.131 164.046 135.368 194.349 92.4976 192.58C82.1315 192.153 72.2758 189.886 63.2322 186.107C66.2038 178.466 73.5107 169.693 91.4486 170.855C91.4486 170.855 80.6043 152.042 98.8578 145.255C117.111 138.402 126.811 153.789 126.811 153.789C126.811 153.789 125.396 142.769 136.779 142.097C136.779 142.097 132.199 118.177 161.903 119.051C161.903 119.051 172.605 119.051 179.613 123.007Z" fill="#0070F0" fill-opacity="0.5"/>
<path opacity="0.32" d="M162.411 64.0726C161.975 64.0726 161.594 64.454 161.594 64.8899C161.594 65.0534 161.648 65.1624 161.703 65.2713L140.344 91.4795L140.78 91.8064L162.084 65.6528C162.193 65.7072 162.302 65.7072 162.411 65.7072C162.847 65.7072 163.228 65.3258 163.228 64.8899C163.228 64.454 162.847 64.0726 162.411 64.0726Z" fill="url(#paint0_linear_3_1599)"/>
<path opacity="0.63" d="M152.957 89.307C152.576 89.307 152.303 89.5794 152.303 89.9609C152.303 90.0698 152.358 90.1788 152.358 90.2878L118.031 132.406L118.358 132.678L152.685 90.5602C152.739 90.6147 152.848 90.6147 152.957 90.6147C153.339 90.6147 153.611 90.3423 153.611 89.9609C153.611 89.5794 153.339 89.307 152.957 89.307Z" fill="url(#paint1_linear_3_1599)"/>
<path opacity="0.65" fill-rule="evenodd" clip-rule="evenodd" d="M178.477 87.004L151.983 119.551L151.492 119.17L178.294 86.2826C178.356 86.5227 178.417 86.7631 178.477 87.004Z" fill="url(#paint2_linear_3_1599)"/>
<path opacity="0.63" d="M87.2507 29.3495C86.7604 29.3495 86.3245 29.7854 86.3245 30.2758C86.3245 30.4392 86.3789 30.6027 86.4334 30.7117L37.6133 90.7016L38.1037 91.083L86.9238 31.1476C87.0328 31.202 87.1418 31.202 87.3052 31.202C87.7956 31.202 88.2315 30.7661 88.2315 30.2758C88.2315 29.7854 87.7956 29.3495 87.2507 29.3495Z" fill="url(#paint3_linear_3_1599)"/>
<path opacity="0.35" d="M76.2489 22.8881C75.813 22.8881 75.4861 23.215 75.4861 23.6509C75.4861 23.7598 75.5406 23.8688 75.5951 23.9778L53.6914 50.8398L54.0728 51.1667L75.922 24.3592C76.031 24.4137 76.14 24.4137 76.2489 24.4137C76.6848 24.4137 77.0118 24.0868 77.0118 23.6509C77.0118 23.215 76.6848 22.8881 76.2489 22.8881Z" fill="url(#paint4_linear_3_1599)"/>
<path opacity="0.63" fill-rule="evenodd" clip-rule="evenodd" d="M11.0364 105.517C11.0461 105.134 11.0584 104.751 11.0733 104.367L46.9392 60.3364L46.9392 60.3364C46.8847 60.1729 46.8302 60.0095 46.8302 59.846C46.8302 59.2467 47.3206 58.8108 47.8654 58.8108C48.4103 58.8108 48.9007 59.2467 48.9007 59.846C48.9007 60.4454 48.4103 60.8813 47.8654 60.8813C47.7565 60.8813 47.593 60.8268 47.484 60.7723L11.0364 105.517Z" fill="url(#paint5_linear_3_1599)"/>
<path opacity="0.9" fill-rule="evenodd" clip-rule="evenodd" d="M83.4553 191.729C83.2029 191.692 82.9509 191.654 82.6992 191.614L128.753 135.038C128.699 134.929 128.644 134.765 128.644 134.602C128.644 134.057 129.08 133.621 129.625 133.621C130.17 133.621 130.606 134.057 130.606 134.602C130.606 135.147 130.17 135.582 129.625 135.582C129.516 135.582 129.353 135.582 129.244 135.528L83.4553 191.729Z" fill="url(#paint6_linear_3_1599)"/>
<path d="M167.397 0.330112L167.397 0.33015L167.401 0.329137C168.915 -0.0126633 170.342 1.15813 170.342 2.73637C170.342 5.53665 170.233 9.80211 169.704 14.1872C169.174 18.5781 168.225 23.0617 166.558 26.3146C165.483 28.3981 163.316 31.3588 160.487 34.7591C157.661 38.1546 154.188 41.9738 150.51 45.7707C143.151 53.3682 134.991 60.8594 129.591 64.6861L129.589 64.6875C128.708 65.3233 127.481 65.275 126.648 64.589L126.647 64.5881L115.751 55.7076C115.751 55.7075 115.751 55.7074 115.75 55.7073C114.917 55.0211 114.621 53.8418 115.064 52.8068C117.669 46.7284 123.324 37.2102 129.261 28.4623C132.227 24.0905 135.261 19.9162 138.014 16.4655C140.771 13.01 143.234 10.2958 145.062 8.83103L145.063 8.8302C147.885 6.54555 152.084 4.70522 156.285 3.29122C160.48 1.87927 164.651 0.901051 167.397 0.330112Z" fill="white" stroke="#0070F0" stroke-width="0.538457"/>
<path d="M127.02 31.2336L132.577 35.756L133.394 34.7207L127.728 30.0894C127.51 30.5252 127.237 30.9067 127.02 31.2336Z" fill="#0070F0"/>
<path d="M169.627 0.611145C169.137 5.40598 167.502 18.1559 162.653 26.2744C157.15 35.5372 129.416 58.912 124.458 63.1075L126.419 64.6876C127.346 65.4504 128.708 65.5049 129.688 64.7966C140.531 57.2229 162.435 34.8833 166.74 26.4379C170.118 19.845 170.554 8.34827 170.554 2.73613C170.608 1.86434 170.227 1.15601 169.627 0.611145Z" fill="#0070F0"/>
<path d="M140.259 41.2038C139.224 42.457 137.426 42.6204 136.172 41.6397C134.919 40.6044 134.756 38.8064 135.736 37.5532C136.772 36.3 138.57 36.1365 139.823 37.1173C141.131 38.098 141.294 39.9506 140.259 41.2038Z" fill="#0070F0"/>
<path d="M151.917 29.9803C156.16 29.9803 159.599 26.5406 159.599 22.2976C159.599 18.0546 156.16 14.615 151.917 14.615C147.674 14.615 144.234 18.0546 144.234 22.2976C144.234 26.5406 147.674 29.9803 151.917 29.9803Z" fill="#0070F0"/>
<path d="M151.921 28.7263C155.472 28.7263 158.351 25.8477 158.351 22.2968C158.351 18.7459 155.472 15.8674 151.921 15.8674C148.37 15.8674 145.492 18.7459 145.492 22.2968C145.492 25.8477 148.37 28.7263 151.921 28.7263Z" fill="white"/>
<path d="M134.76 46.2162C134.107 46.979 132.962 47.088 132.2 46.4886C131.437 45.8348 131.328 44.6905 131.927 43.9277C132.581 43.1649 133.725 43.0559 134.488 43.6553C135.305 44.3091 135.414 45.4534 134.76 46.2162Z" fill="#0070F0"/>
<path d="M115.955 50.7944C115.515 51.7059 115.197 51.9092 114.866 52.7015C114.623 53.2826 115.05 53.8289 114.866 54.3361L115.411 55.6874L127.943 65.2334C129.032 64.5796 130.34 64.4706 131.702 63.3809L115.955 50.7944Z" fill="url(#paint7_linear_3_1599)"/>
<path d="M115.791 50.4126C115.401 51.2206 115.054 51.9858 114.749 52.701C114.458 53.3845 114.962 53.7499 114.749 54.3357L115.41 55.76L126.388 64.6881L127.942 65.233C128.554 64.8658 129.272 65.1928 129.977 64.6881C130.528 64.2941 131.104 63.8582 131.701 63.3805L115.791 50.4126Z" fill="#0070F0"/>
<path d="M127.89 60.2747C126.364 61.5824 125.22 62.5632 124.512 63.1625L125.166 63.7074L126.473 64.7426L127.399 65.233C127.944 65.233 128.489 65.5055 129.797 64.8516C130.124 64.6337 130.396 64.4157 130.723 64.1978C130.723 64.1978 130.778 64.1978 130.778 64.1433C130.996 63.9798 131.214 63.8164 131.377 63.6529C131.486 63.5439 131.595 63.4894 131.704 63.435L131.758 63.3805L127.89 60.2747Z" fill="#0070F0"/>
<path d="M120.046 43.4373C120.046 43.4373 116.995 41.6392 115.578 38.2065L112.473 42.0206C112.473 42.0206 117.322 45.5623 117.594 47.9052C118.303 46.4885 119.12 45.0174 120.046 43.4373Z" fill="#0070F0"/>
<path d="M126.477 64.7968C127.403 65.5596 128.765 65.6141 129.746 64.9058C140.589 57.2232 162.438 34.8836 166.797 26.4381L126.477 64.7968ZM126.477 64.7968L115.58 55.9155L126.477 64.7968ZM166.438 26.2537C165.37 28.3232 163.212 31.2741 160.383 34.673C157.561 38.0653 154.089 41.8819 150.413 45.677C143.056 53.2728 134.903 60.7569 129.513 64.5763L129.51 64.5784C128.68 65.1778 127.52 65.1327 126.734 64.4851L126.732 64.4838L115.836 55.6037C115.836 55.6035 115.836 55.6032 115.835 55.6029C115.049 54.9549 114.768 53.84 115.188 52.8598C117.788 46.7935 123.437 37.2838 129.372 28.5379C132.337 24.1681 135.369 19.9968 138.119 16.5495C140.875 13.0949 143.331 10.3908 145.146 8.93607L145.148 8.93483C147.951 6.6657 152.131 4.83148 156.328 3.4188C160.516 2.00921 164.681 1.03226 167.424 0.461907L167.424 0.461965L167.431 0.460445C168.857 0.138448 170.207 1.2408 170.207 2.73637C170.207 5.53376 170.099 9.79334 169.57 14.1711C169.04 18.5579 168.094 23.0224 166.438 26.2537Z" stroke="#0070F0" stroke-width="0.807685"/>
<path d="M114.239 41.8833L114.239 41.8836C113.725 42.8335 112.648 44.0773 111.137 45.5607C109.696 46.9759 107.89 48.5817 105.87 50.3209L99.2034 44.8668C100.502 42.5864 101.72 40.5093 102.823 38.8157C103.98 37.0386 104.988 35.7221 105.81 35.0286L105.81 35.0286L105.812 35.0266C106.913 34.083 108.452 33.2302 110.069 32.5296L110.069 32.5296L110.071 32.5285C111.792 31.7693 113.427 32.0826 114.502 32.962L114.502 32.9621L114.509 32.9675C115.629 33.8447 116.239 35.3712 115.834 37.1932L115.834 37.1945C115.456 38.9214 114.921 40.6233 114.239 41.8833Z" fill="white" stroke="#0070F0" stroke-width="0.807685"/>
<path d="M99.7736 43.1104C99.4467 43.7097 99.0652 44.3636 98.6838 44.9629L105.876 50.8475C106.421 50.3571 106.966 49.8667 107.511 49.4309L99.7736 43.1104Z" fill="#0070F0"/>
<path d="M143.47 42.948L142.653 43.9832L148.21 48.5056C148.537 48.1787 148.81 47.8518 149.137 47.5794L143.47 42.948Z" fill="#0070F0"/>
<path d="M130.549 54.411L130.549 54.4123C130.171 56.1375 129.637 57.8378 128.955 59.0975C128.413 60.0516 127.32 61.2968 125.811 62.7785C124.37 64.1936 122.577 65.7988 120.583 67.5373L113.918 62.0845C115.217 59.8041 116.434 57.727 117.537 56.0335C118.695 54.2563 119.702 52.9398 120.524 52.2463L120.524 52.2463L120.527 52.2443C121.627 51.3007 123.166 50.448 124.783 49.7473L124.783 49.7474L124.786 49.7463C126.507 48.9871 128.142 49.3004 129.216 50.1797L129.216 50.1798L129.223 50.1852C130.344 51.0624 130.954 52.5889 130.549 54.411Z" fill="white" stroke="#0070F0" stroke-width="0.807685"/>
<path d="M128.651 55.2066C126.69 58.9117 119.389 63.6521 116.991 65.1777L120.587 68.12C124.783 64.4694 128.161 61.3091 129.251 59.3476C129.959 58.0399 130.504 56.2964 130.885 54.5528C131.212 53.1361 130.94 51.8829 130.34 50.9022C130.177 51.8829 129.687 53.2451 128.651 55.2066Z" fill="#0070F0"/>
<path d="M114.488 60.3286C114.161 60.928 113.78 61.5818 113.398 62.1812L120.591 68.0657C121.136 67.5754 121.68 67.085 122.225 66.6491L114.488 60.3286Z" fill="#0070F0"/>
<path d="M51.3879 116.722L45.2854 111.764L99.2818 45.4538L105.384 50.4121L51.3879 116.722Z" fill="url(#paint8_linear_3_1599)"/>
<path d="M38.3681 167.941L32.2656 162.982L113.996 62.6721L120.044 67.6304L38.3681 167.941Z" fill="url(#paint9_linear_3_1599)"/>
<path d="M137.752 57.8224C137.752 57.8224 140.149 60.4378 143.8 61.1461L140.694 64.9602C140.694 64.9602 136.226 60.9281 133.883 61.0916C135.136 60.1108 136.39 58.9666 137.752 57.8224Z" fill="#0070F0"/>
<path d="M144.616 60.6451L144.616 60.6451L144.618 60.644C146.349 59.8806 147.976 60.1511 149.041 61.0705L149.041 61.0706L149.049 61.0775C150.121 61.9547 150.734 63.4871 150.38 65.3146C150.004 67.0338 149.47 68.6832 148.785 70.0019C148.27 70.9516 147.193 72.1945 145.691 73.6768C144.256 75.0916 142.464 76.6965 140.47 78.435L133.805 72.9822C135.103 70.7025 136.308 68.6378 137.398 66.9504C138.541 65.1819 139.536 63.8632 140.361 63.1407C141.462 62.1976 143 61.3454 144.616 60.6451Z" fill="white" stroke="#0070F0" stroke-width="0.807685"/>
<path d="M142.054 77.5465C141.51 78.0369 141.074 78.3638 140.474 78.8542L133.228 73.0786C133.609 72.4247 133.936 71.8254 134.317 71.226L142.054 77.5465Z" fill="#0070F0"/>
<path d="M70.1335 151.648L76.2361 156.606L139.877 78.5267L133.774 73.5684L70.1335 151.648Z" fill="url(#paint10_linear_3_1599)"/>
<path d="M167.34 0.0665206C165.215 0.502415 162.273 1.21074 159.167 2.13702L170.283 11.1818C170.555 7.91262 170.609 4.91584 170.609 2.73637C170.609 0.992796 169.029 -0.314887 167.34 0.0665206Z" fill="#0070F0"/>
<path d="M130.724 64.0885C130.67 64.143 130.67 64.143 130.724 64.0885C130.888 63.9795 131.106 63.8161 131.324 63.5981C131.106 63.8161 130.888 63.9795 130.724 64.0885Z" fill="url(#paint11_linear_3_1599)"/>
<path d="M125.658 64.089L126.421 64.6884L125.114 63.6531L125.658 64.089Z" fill="url(#paint12_linear_3_1599)"/>
<path d="M170.117 2.61543C170.117 2.56461 170.117 2.51379 170.117 2.46298C170.117 2.41216 170.117 2.36134 170.117 2.31053C170.117 2.25971 170.063 2.20889 170.063 2.10726C170.063 2.05644 170.063 2.05644 170.063 2.00563C170.063 1.95481 170.008 1.85318 169.954 1.80236V1.75154C169.899 1.64991 169.845 1.59909 169.845 1.54828C169.79 1.44664 169.736 1.39582 169.681 1.34501C169.572 1.19256 169.409 1.09093 169.3 0.938477C169.082 2.76788 168.701 5.81688 167.992 9.27242L169.899 10.7461C169.954 10.3904 169.954 9.98385 170.008 9.62813C170.063 8.86588 170.117 8.15445 170.117 7.49383V7.44301C170.172 6.78239 170.172 6.12178 170.172 5.51198C170.172 5.46116 170.172 5.41034 170.172 5.41034C170.172 5.10544 170.172 4.85136 170.172 4.54646C170.172 4.29238 170.172 4.03829 170.172 3.78421C170.172 3.73339 170.172 3.68258 170.172 3.63176C170.172 3.37768 170.172 3.17441 170.172 2.97114C170.117 2.81869 170.117 2.71706 170.117 2.61543Z" fill="#0070F0"/>
<path d="M150.226 61.7998C149.954 63.2165 149.191 65.8318 146.848 68.8831C144.396 72.0978 139.928 75.0401 137.422 76.5112L140.473 78.9631C144.669 75.3125 148.047 72.1523 149.137 70.1908C149.845 68.8831 150.39 67.1395 150.771 65.3959C151.044 64.0338 150.826 62.7806 150.226 61.7998Z" fill="#0070F0"/>
<path d="M141.298 78.0368C141.516 77.8189 141.625 77.7099 141.843 77.492C141.843 77.492 142.061 77.492 142.116 77.492L139.391 75.3125C138.683 75.7484 138.029 76.0753 137.484 76.4022L140.481 78.8541C140.754 78.6362 141.026 78.2548 141.298 78.0368C141.244 78.0368 141.244 77.9824 141.298 78.0368Z" fill="#0070F0"/>
<path d="M120.639 68.0658C121.184 67.5754 121.729 67.085 122.274 66.6491L118.95 63.9248C118.187 64.4152 117.534 64.8511 117.098 65.1235L120.639 68.0658Z" fill="#0070F0"/>
<path d="M113.943 38.0444C112.472 41.4771 105.443 46.3809 102.664 48.2335L105.933 50.9033C110.129 47.2527 113.507 44.0925 114.597 42.1309C115.305 40.8233 115.85 39.0797 116.231 37.3361C116.558 35.8105 116.231 34.4483 115.468 33.4131C115.251 34.3938 114.815 35.9194 113.943 38.0444Z" fill="#0070F0"/>
<path d="M106.594 49.8872C106.812 49.7238 106.943 49.5287 107.161 49.3653C107.161 49.3653 107.244 49.2671 107.433 49.3765L104.572 46.9795C103.863 47.4699 103.209 47.9058 102.773 48.2327L105.744 50.6701C106.016 50.4522 106.322 50.1052 106.594 49.8872C106.54 49.9417 106.54 49.8327 106.594 49.8872Z" fill="#0070F0"/>
<path d="M114.243 41.8838L114.243 41.8841C113.729 42.834 112.652 44.0779 111.141 45.5612C109.7 46.9764 107.894 48.5822 105.874 50.3215L99.2076 44.8673C100.506 42.5869 101.724 40.5098 102.827 38.8162C103.984 37.0391 104.992 35.7226 105.814 35.0291L105.814 35.0291L105.816 35.0271C106.917 34.0835 108.456 33.2308 110.073 32.5301L110.073 32.5301L110.075 32.5291C111.796 31.7699 113.431 32.0831 114.506 32.9625L114.506 32.9626L114.513 32.968C115.634 33.8452 116.243 35.3717 115.839 37.1937L115.838 37.195C115.46 38.9219 114.926 40.6238 114.243 41.8838Z" stroke="#0070F0" stroke-width="0.807685"/>
<path d="M130.549 54.411L130.549 54.4123C130.171 56.1375 129.637 57.8378 128.955 59.0975C128.413 60.0516 127.32 61.2968 125.811 62.7785C124.37 64.1936 122.577 65.7988 120.583 67.5373L113.918 62.0845C115.217 59.8041 116.434 57.727 117.537 56.0335C118.695 54.2563 119.702 52.9398 120.524 52.2463L120.524 52.2463L120.527 52.2443C121.627 51.3007 123.166 50.448 124.783 49.7473L124.783 49.7474L124.786 49.7463C126.507 48.9871 128.142 49.3004 129.216 50.1797L129.216 50.1798L129.223 50.1852C130.344 51.0624 130.954 52.5889 130.549 54.411Z" stroke="#0070F0" stroke-width="0.807685"/>
<path d="M144.612 60.6451L144.612 60.6451L144.614 60.644C146.345 59.8806 147.972 60.1511 149.037 61.0705L149.037 61.0706L149.045 61.0775C150.117 61.9547 150.73 63.4871 150.376 65.3146C150 67.0338 149.466 68.6832 148.78 70.0019C148.266 70.9516 147.189 72.1945 145.687 73.6768C144.252 75.0916 142.46 76.6965 140.466 78.435L133.801 72.9822C135.099 70.7025 136.304 68.6378 137.394 66.9504C138.537 65.1819 139.532 63.8632 140.357 63.1407C141.457 62.1976 142.996 61.3454 144.612 60.6451Z" stroke="#0070F0" stroke-width="0.807685"/>
<defs>
<filter id="filter0_d_3_1599" x="0.230866" y="19.9616" width="191.537" height="191.537" filterUnits="userSpaceOnUse" color-interpolation-filters="sRGB">
<feFlood flood-opacity="0" result="BackgroundImageFix"/>
<feColorMatrix in="SourceAlpha" type="matrix" values="0 0 0 0 0 0 0 0 0 0 0 0 0 0 0 0 0 0 127 0" result="hardAlpha"/>
<feOffset dy="8.07685"/>
<feGaussianBlur stdDeviation="5.38457"/>
<feColorMatrix type="matrix" values="0 0 0 0 0 0 0 0 0 0 0 0 0 0 0 0 0 0 0.04 0"/>
<feBlend mode="normal" in2="BackgroundImageFix" result="effect1_dropShadow_3_1599"/>
<feBlend mode="normal" in="SourceGraphic" in2="effect1_dropShadow_3_1599" result="shape"/>
</filter>
<linearGradient id="paint0_linear_3_1599" x1="140.33" y1="77.9673" x2="163.234" y2="77.9673" gradientUnits="userSpaceOnUse">
<stop offset="0.2849" stop-color="#0070F0" stop-opacity="0"/>
<stop offset="1" stop-color="white"/>
</linearGradient>
<linearGradient id="paint1_linear_3_1599" x1="118.077" y1="110.986" x2="153.636" y2="110.986" gradientUnits="userSpaceOnUse">
<stop offset="0.2849" stop-color="#0070F0" stop-opacity="0"/>
<stop offset="1" stop-color="white"/>
</linearGradient>
<linearGradient id="paint2_linear_3_1599" x1="151.493" y1="88.8297" x2="201.942" y2="88.8297" gradientUnits="userSpaceOnUse">
<stop offset="0.2849" stop-color="#0070F0" stop-opacity="0"/>
<stop offset="1" stop-color="white"/>
</linearGradient>
<linearGradient id="paint3_linear_3_1599" x1="37.5889" y1="60.2263" x2="88.2057" y2="60.2263" gradientUnits="userSpaceOnUse">
<stop offset="0.2849" stop-color="#0070F0" stop-opacity="0"/>
<stop offset="1" stop-color="white"/>
</linearGradient>
<linearGradient id="paint4_linear_3_1599" x1="53.721" y1="37.0124" x2="77.0273" y2="37.0124" gradientUnits="userSpaceOnUse">
<stop offset="0.2849" stop-color="#0070F0" stop-opacity="0"/>
<stop offset="1" stop-color="white"/>
</linearGradient>
<linearGradient id="paint5_linear_3_1599" x1="-6.67968" y1="92.6852" x2="48.8947" y2="92.6852" gradientUnits="userSpaceOnUse">
<stop offset="0.2849" stop-color="#0070F0" stop-opacity="0"/>
<stop offset="1" stop-color="white"/>
</linearGradient>
<linearGradient id="paint6_linear_3_1599" x1="77.4792" y1="166.045" x2="130.601" y2="166.045" gradientUnits="userSpaceOnUse">
<stop offset="0.2849" stop-color="#0070F0" stop-opacity="0"/>
<stop offset="1" stop-color="white"/>
</linearGradient>
<linearGradient id="paint7_linear_3_1599" x1="114.263" y1="50.5522" x2="131.566" y2="67.527" gradientUnits="userSpaceOnUse">
<stop stop-color="#0070F0"/>
<stop offset="1" stop-color="#0070F0"/>
</linearGradient>
<linearGradient id="paint8_linear_3_1599" x1="68.9976" y1="118.695" x2="84.2745" y2="49.8587" gradientUnits="userSpaceOnUse">
<stop offset="0.2097" stop-color="#0070F0" stop-opacity="0"/>
<stop offset="0.871" stop-color="#0070F0"/>
</linearGradient>
<linearGradient id="paint9_linear_3_1599" x1="66.8987" y1="170.855" x2="89.6944" y2="69.2869" gradientUnits="userSpaceOnUse">
<stop offset="0.2097" stop-color="#0070F0" stop-opacity="0"/>
<stop offset="0.871" stop-color="#0070F0"/>
</linearGradient>
<linearGradient id="paint10_linear_3_1599" x1="97.6508" y1="158.905" x2="115.515" y2="78.7311" gradientUnits="userSpaceOnUse">
<stop offset="0.2097" stop-color="#0070F0" stop-opacity="0"/>
<stop offset="0.871" stop-color="#0070F0"/>
</linearGradient>
<linearGradient id="paint11_linear_3_1599" x1="115.802" y1="48.992" x2="133.102" y2="65.963" gradientUnits="userSpaceOnUse">
<stop stop-color="#0070F0"/>
<stop offset="1" stop-color="#0070F0"/>
</linearGradient>
<linearGradient id="paint12_linear_3_1599" x1="124.84" y1="61.5066" x2="126.629" y2="66.5876" gradientUnits="userSpaceOnUse">
<stop offset="0.00537634" stop-color="#0070F0"/>
<stop offset="1" stop-color="#0070F0"/>
</linearGradient>
</defs>
</svg>
